# xmcd
#
# Track frame offsets: 
#        150
#        27147
#        48367
#        62479
#        86901
#        96686
#        118706
#        137018
#        158955
#
# Disc length: 2509 seconds
#
# Revision: 0
# Processed by: cddbd v1.5.2PL0 Copyright (c) Steve Scherf et al.
# Submitted via: ExactAudioCopyFreeDBPlugin 1.0
#
DISCID=7909cb09
DTITLE=อารักษ์ อาภากาศ - สีสมัย
DYEAR=1995
DGENRE=Blues
TTITLE0=สีสมัยบท 1-4
TTITLE1=สีสมัยบท 5-7
TTITLE2=สีสมัยบท 8-9
TTITLE3=สีสมัยบท 10-12
TTITLE4=สีสมัยบท13
TTITLE5=สีสมัยบท 14-15
TTITLE6=เงาดวงจันทร์ (Bonus Track)
TTITLE7=คนเดินดิน (Bonus Track)
TTITLE8=หัวใจและสมอง (Bonus Track)
EXTD=
EXTT0=
EXTT1=
EXTT2=
EXTT3=
EXTT4=
EXTT5=
EXTT6=
EXTT7=
EXTT8=
PLAYORDER=
